<svg xmlns="http://www.w3.org/2000/svg" data-name="Layer 1" viewBox="0 0 512 640" x="0px" y="0px"><title>Chat Location</title><g data-name="Group"><circle data-name="Path" cx="256" cy="188.91" r="41.563"/><path data-name="Compound Path" d="M256,106.779c-46.18,0-83.75,35.76-83.75,79.714,0,32.445,23.688,63.187,43.561,83.263a301.545,301.545,0,0,0,40.181,33.8c17.679-12.383,83.758-62.339,83.758-117.063C339.75,142.539,302.18,106.779,256,106.779Zm0,139.694a57.563,57.563,0,1,1,57.563-57.563A57.629,57.629,0,0,1,256,246.473Z"/><path data-name="Compound Path" d="M427.726,49H84.274C57.807,49,36,70.035,36,96.5V323.445C36,349.912,57.807,371,84.274,371h41.143l23.248,86.36a7.825,7.825,0,0,0,13.59,3.326L245.209,371H427.726C454.193,371,476,349.912,476,323.445V96.5C476,70.035,454.193,49,427.726,49ZM307.561,281.012a305.434,305.434,0,0,1-47.252,38.949,8,8,0,0,1-8.618,0,305.434,305.434,0,0,1-47.252-38.949c-31.976-32.3-48.189-64.1-48.189-94.519,0-52.777,44.748-95.714,99.75-95.714s99.75,42.937,99.75,95.714C355.75,216.907,339.537,248.708,307.561,281.012Z"/></g><text x="0" y="527" fill="#000000" font-size="5px" font-weight="bold" font-family="'Helvetica Neue', Helvetica, Arial-Unicode, Arial, Sans-serif">Created by Shastry</text><text x="0" y="532" fill="#000000" font-size="5px" font-weight="bold" font-family="'Helvetica Neue', Helvetica, Arial-Unicode, Arial, Sans-serif">from the Noun Project</text></svg>